<?xml version="1.0" encoding="UTF-8" standalone="no"?>
<!DOCTYPE svg PUBLIC "-//W3C//DTD SVG 1.1//EN" "http://www.w3.org/Graphics/SVG/1.1/DTD/svg11.dtd">
<svg version="1.1" xmlns="http://www.w3.org/2000/svg" xmlns:xlink="http://www.w3.org/1999/xlink" preserveAspectRatio="xMidYMid meet" viewBox="0 0 512 512" width="512" height="512"><defs><path d="M92.8 97.14L98.08 120.24L98.08 136.73L82.24 158.18L62.88 182.93L47.04 210.97L40 260.46L47.04 293.46L73.44 316.55L105.12 333.05L136.8 333.05L156.16 338L166.72 323.15L172 293.46L172 267.06L147.36 267.06L136.8 253.86L119.2 243.97L119.2 220.87L126.24 187.88L136.8 158.18L136.8 120.24L126.24 97.14L119.2 77.34L98.08 46L92.8 97.14Z" id="c5G05kdukS"></path><path d="M419.2 99.14L413.92 122.24L413.92 138.73L429.76 160.18L449.12 184.93L464.96 212.97L472 262.46L464.96 295.46L438.56 318.55L406.88 335.05L375.2 335.05L355.84 340L345.28 325.15L340 295.46L340 269.06L364.64 269.06L375.2 255.86L392.8 245.97L392.8 222.87L385.76 189.88L375.2 160.18L375.2 122.24L385.76 99.14L392.8 79.34L413.92 48L419.2 99.14Z" id="aU4R4Ji16"></path><path d="M271.84 172.02L272.04 172.05L272.23 172.08L272.41 172.13L272.59 172.18L272.77 172.25L272.94 172.32L273.1 172.4L273.26 172.49L273.42 172.59L273.57 172.7L273.72 172.81L273.86 172.94L274 173.07L274.13 173.21L274.26 173.35L274.39 173.51L274.51 173.67L274.63 173.83L274.75 174L274.86 174.18L274.97 174.37L275.08 174.56L275.18 174.76L275.29 174.96L275.39 175.17L275.49 175.38L275.58 175.6L275.68 175.82L275.77 176.04L275.86 176.28L275.95 176.51L276.04 176.75L276.13 176.99L276.22 177.24L276.31 177.49L276.39 177.74L276.48 177.99L276.57 178.25L281.01 194.47L282.41 194.89L285.5 195.96L288.52 197.14L291.49 198.42L294.4 199.82L294.64 199.94L309.63 191.51L309.88 191.38L310.12 191.26L310.37 191.15L310.61 191.03L310.85 190.92L311.09 190.81L311.33 190.7L311.56 190.6L311.8 190.5L312.03 190.4L312.26 190.31L312.48 190.22L312.71 190.14L312.93 190.06L313.15 189.99L313.37 189.92L313.58 189.86L313.79 189.81L314 189.76L314.21 189.72L314.42 189.68L314.62 189.65L314.82 189.63L315.02 189.62L315.22 189.61L315.41 189.61L315.6 189.62L315.79 189.64L315.97 189.67L316.15 189.71L316.33 189.75L316.51 189.81L316.68 189.87L316.85 189.95L317.02 190.03L317.18 190.13L317.34 190.24L317.5 190.35L317.66 190.48L317.81 190.62L339.63 211.84L339.77 211.98L339.9 212.14L340.03 212.29L340.14 212.45L340.24 212.62L340.33 212.78L340.41 212.95L340.49 213.12L340.55 213.3L340.6 213.48L340.64 213.66L340.68 213.85L340.7 214.03L340.72 214.23L340.73 214.42L340.73 214.61L340.72 214.81L340.7 215.01L340.68 215.21L340.65 215.42L340.61 215.63L340.56 215.83L340.51 216.04L340.45 216.25L340.38 216.47L340.31 216.68L340.23 216.9L340.14 217.12L340.05 217.34L339.95 217.55L339.85 217.78L339.74 218L339.63 218.22L339.51 218.44L339.39 218.67L339.26 218.89L339.13 219.12L339 219.34L338.86 219.57L338.72 219.79L330.05 234.34L330.23 234.66L331.66 237.49L332.99 240.37L334.2 243.32L335.3 246.32L335.73 247.68L352.41 252L352.68 252.06L352.94 252.12L353.2 252.19L353.45 252.26L353.71 252.33L353.95 252.41L354.2 252.48L354.44 252.56L354.68 252.64L354.91 252.73L355.14 252.82L355.36 252.91L355.58 253.01L355.8 253.1L356 253.21L356.21 253.31L356.4 253.42L356.59 253.53L356.78 253.65L356.95 253.77L357.13 253.89L357.29 254.01L357.45 254.14L357.6 254.28L357.74 254.42L357.87 254.56L358 254.7L358.12 254.85L358.23 255.01L358.33 255.17L358.43 255.33L358.51 255.5L358.59 255.67L358.65 255.84L358.71 256.03L358.75 256.21L358.79 256.4L358.82 256.6L358.83 256.8L358.84 257L358.84 287L358.83 287.2L358.82 287.4L358.79 287.59L358.75 287.78L358.71 287.96L358.65 288.14L358.59 288.31L358.51 288.47L358.43 288.63L358.33 288.79L358.23 288.94L358.12 289.09L358 289.23L357.87 289.37L357.74 289.5L357.6 289.63L357.45 289.76L357.29 289.88L357.13 290L356.95 290.11L356.78 290.23L356.59 290.34L356.4 290.45L356.21 290.55L356 290.65L355.8 290.75L355.58 290.85L355.36 290.95L355.14 291.04L354.91 291.13L354.68 291.23L354.44 291.31L354.2 291.4L353.95 291.49L353.71 291.58L353.45 291.66L353.2 291.75L352.94 291.83L352.68 291.92L352.41 292L335.73 296.32L335.3 297.68L334.2 300.68L332.99 303.63L331.66 306.51L330.23 309.34L330.07 309.62L338.72 324.15L338.86 324.37L339 324.6L339.13 324.82L339.26 325.05L339.39 325.27L339.51 325.5L339.63 325.72L339.74 325.94L339.85 326.16L339.95 326.39L340.05 326.61L340.14 326.82L340.23 327.04L340.31 327.26L340.38 327.47L340.45 327.69L340.51 327.9L340.56 328.11L340.61 328.32L340.65 328.52L340.68 328.73L340.7 328.93L340.72 329.13L340.73 329.33L340.73 329.52L340.72 329.71L340.7 329.91L340.68 330.09L340.64 330.28L340.6 330.46L340.55 330.64L340.49 330.82L340.41 330.99L340.33 331.16L340.24 331.33L340.14 331.49L340.03 331.65L339.9 331.8L339.77 331.96L339.63 332.1L317.81 353.32L317.66 353.46L317.5 353.59L317.34 353.7L317.18 353.81L317.02 353.91L316.85 353.99L316.68 354.07L316.51 354.13L316.33 354.19L316.15 354.23L315.97 354.27L315.79 354.3L315.6 354.32L315.41 354.33L315.22 354.33L315.02 354.32L314.82 354.31L314.62 354.29L314.42 354.26L314.21 354.22L314 354.18L313.79 354.13L313.58 354.08L313.37 354.02L313.15 353.95L312.93 353.88L312.71 353.8L312.48 353.72L312.26 353.63L312.03 353.54L311.8 353.44L311.56 353.35L311.33 353.24L311.09 353.13L310.85 353.02L310.61 352.91L310.37 352.8L310.12 352.68L309.88 352.56L309.63 352.43L294.69 344.02L294.4 344.18L291.49 345.58L288.52 346.86L285.5 348.04L282.41 349.11L281.01 349.53L276.57 365.75L276.48 366.01L276.39 366.26L276.31 366.51L276.22 366.76L276.13 367.01L276.04 367.25L275.95 367.49L275.86 367.72L275.77 367.96L275.68 368.18L275.58 368.4L275.49 368.62L275.39 368.83L275.29 369.04L275.18 369.24L275.08 369.44L274.97 369.63L274.86 369.82L274.75 370L274.63 370.17L274.51 370.33L274.39 370.49L274.26 370.65L274.13 370.79L274 370.93L273.86 371.06L273.72 371.19L273.57 371.3L273.42 371.41L273.26 371.51L273.1 371.6L272.94 371.68L272.77 371.75L272.59 371.82L272.41 371.87L272.23 371.92L272.04 371.95L271.84 371.98L271.64 371.99L271.43 372L240.57 372L240.36 371.99L240.16 371.98L239.96 371.95L239.76 371.92L239.57 371.87L239.39 371.82L239.21 371.75L239.03 371.68L238.86 371.6L238.69 371.51L238.53 371.41L238.37 371.3L238.21 371.19L238.06 371.06L237.92 370.93L237.78 370.79L237.64 370.65L237.5 370.49L237.37 370.33L237.25 370.17L237.13 370L237.01 369.82L236.89 369.63L236.78 369.44L236.67 369.24L236.57 369.04L236.47 368.83L236.37 368.62L236.28 368.4L236.18 368.18L236.1 367.96L236.01 367.72L235.93 367.49L235.85 367.25L235.77 367.01L235.7 366.76L235.63 366.51L235.56 366.26L235.5 366.01L235.43 365.75L230.99 349.53L229.59 349.11L226.5 348.04L223.48 346.86L220.51 345.58L217.6 344.18L217.25 344L202.37 352.37L202.14 352.51L201.91 352.65L201.68 352.78L201.45 352.91L201.21 353.03L200.98 353.15L200.75 353.26L200.53 353.37L200.3 353.48L200.07 353.58L199.85 353.67L199.62 353.76L199.4 353.84L199.17 353.92L198.95 353.99L198.73 354.06L198.52 354.11L198.3 354.17L198.09 354.21L197.87 354.25L197.66 354.28L197.46 354.3L197.25 354.32L197.05 354.33L196.85 354.33L196.65 354.32L196.45 354.31L196.26 354.28L196.07 354.25L195.88 354.21L195.7 354.16L195.51 354.09L195.34 354.03L195.16 353.95L194.99 353.86L194.82 353.76L194.66 353.65L194.5 353.53L194.34 353.4L194.19 353.26L172.37 332.04L172.23 331.9L172.1 331.75L171.98 331.59L171.87 331.43L171.77 331.27L171.68 331.11L171.6 330.95L171.54 330.78L171.48 330.61L171.43 330.43L171.39 330.26L171.37 330.08L171.35 329.89L171.34 329.71L171.33 329.52L171.34 329.33L171.35 329.14L171.38 328.94L171.41 328.75L171.44 328.55L171.49 328.34L171.54 328.14L171.59 327.93L171.65 327.72L171.72 327.51L171.8 327.3L171.88 327.08L171.96 326.86L172.05 326.64L172.15 326.42L172.24 326.2L172.35 325.97L172.45 325.74L172.56 325.51L172.68 325.28L172.79 325.04L172.91 324.81L173.03 324.57L173.16 324.33L173.28 324.09L181.92 309.6L181.77 309.34L180.34 306.51L179.01 303.63L177.8 300.68L176.7 297.68L176.27 296.32L159.59 292L159.32 291.92L159.06 291.83L158.8 291.75L158.55 291.66L158.29 291.58L158.05 291.49L157.8 291.4L157.56 291.31L157.32 291.23L157.09 291.13L156.86 291.04L156.64 290.95L156.42 290.85L156.2 290.75L156 290.65L155.79 290.55L155.6 290.45L155.41 290.34L155.22 290.23L155.05 290.11L154.87 290L154.71 289.88L154.55 289.76L154.4 289.63L154.26 289.5L154.13 289.37L154 289.23L153.88 289.09L153.77 288.94L153.67 288.79L153.57 288.63L153.49 288.47L153.41 288.31L153.35 288.14L153.29 287.96L153.25 287.78L153.21 287.59L153.18 287.4L153.17 287.2L153.16 287L153.16 257L153.17 256.8L153.18 256.6L153.21 256.4L153.25 256.21L153.29 256.03L153.35 255.84L153.41 255.67L153.49 255.5L153.57 255.33L153.67 255.17L153.77 255.01L153.88 254.85L154 254.7L154.13 254.56L154.26 254.42L154.4 254.28L154.55 254.14L154.71 254.01L154.87 253.89L155.05 253.77L155.22 253.65L155.41 253.53L155.6 253.42L155.79 253.31L156 253.21L156.2 253.1L156.42 253.01L156.64 252.91L156.86 252.82L157.09 252.73L157.32 252.64L157.56 252.56L157.8 252.48L158.05 252.41L158.29 252.33L158.55 252.26L158.8 252.19L159.06 252.12L159.32 252.06L159.59 252L176.27 247.68L176.7 246.32L177.8 243.32L179.01 240.37L180.34 237.49L181.77 234.66L181.93 234.38L173.28 219.85L173.16 219.61L173.03 219.37L172.91 219.13L172.79 218.9L172.68 218.66L172.56 218.43L172.45 218.2L172.35 217.97L172.24 217.74L172.15 217.52L172.05 217.3L171.96 217.08L171.88 216.86L171.8 216.64L171.72 216.43L171.65 216.22L171.59 216.01L171.54 215.8L171.49 215.6L171.44 215.39L171.41 215.19L171.38 215L171.35 214.8L171.34 214.61L171.33 214.42L171.34 214.23L171.35 214.05L171.37 213.86L171.39 213.68L171.43 213.51L171.48 213.33L171.54 213.16L171.6 212.99L171.68 212.83L171.77 212.67L171.87 212.51L171.98 212.35L172.1 212.19L172.23 212.04L172.37 211.9L194.19 190.68L194.34 190.54L194.5 190.41L194.66 190.29L194.82 190.18L194.99 190.08L195.16 189.99L195.34 189.92L195.51 189.85L195.7 189.79L195.88 189.73L196.07 189.69L196.26 189.66L196.45 189.63L196.65 189.62L196.85 189.61L197.05 189.61L197.25 189.62L197.46 189.64L197.66 189.66L197.87 189.69L198.09 189.73L198.3 189.77L198.52 189.83L198.73 189.88L198.95 189.95L199.17 190.02L199.4 190.1L199.62 190.18L199.85 190.27L200.07 190.36L200.3 190.46L200.53 190.57L200.75 190.68L200.98 190.79L201.21 190.91L201.45 191.03L201.68 191.16L201.91 191.29L202.14 191.43L202.37 191.57L217.31 199.98L217.6 199.82L220.51 198.42L223.48 197.14L226.5 195.96L229.59 194.89L230.99 194.47L235.43 178.25L235.5 177.99L235.56 177.74L235.63 177.49L235.7 177.24L235.77 176.99L235.85 176.75L235.93 176.51L236.01 176.28L236.1 176.04L236.18 175.82L236.28 175.6L236.37 175.38L236.47 175.17L236.57 174.96L236.67 174.76L236.78 174.56L236.89 174.37L237.01 174.18L237.13 174L237.25 173.83L237.37 173.67L237.5 173.51L237.64 173.35L237.78 173.21L237.92 173.07L238.06 172.94L238.21 172.81L238.37 172.7L238.53 172.59L238.69 172.49L238.86 172.4L239.03 172.32L239.21 172.25L239.39 172.18L239.57 172.13L239.76 172.08L239.96 172.05L240.16 172.02L240.36 172.01L240.57 172L271.43 172L271.64 172.01L271.84 172.02ZM252.31 228.4L250.5 228.57L248.7 228.82L246.93 229.14L245.19 229.52L243.47 229.97L241.78 230.48L240.12 231.05L238.49 231.69L236.89 232.38L235.32 233.13L233.79 233.94L232.3 234.8L230.84 235.72L229.43 236.69L228.05 237.71L226.72 238.78L225.43 239.9L224.19 241.06L222.99 242.27L221.84 243.53L220.74 244.82L219.69 246.16L218.69 247.54L217.75 248.95L216.86 250.41L216.03 251.89L215.26 253.42L214.54 254.97L213.89 256.56L213.3 258.17L212.78 259.82L212.32 261.49L211.92 263.18L211.6 264.9L211.34 266.65L211.16 268.41L211.05 270.2L211.01 272L211.05 273.8L211.16 275.59L211.34 277.35L211.6 279.1L211.92 280.82L212.32 282.51L212.78 284.18L213.3 285.83L213.89 287.44L214.54 289.03L215.26 290.58L216.03 292.11L216.86 293.59L217.75 295.05L218.69 296.46L219.69 297.84L220.74 299.18L221.84 300.47L222.99 301.73L224.19 302.94L225.43 304.1L226.72 305.22L228.05 306.29L229.43 307.31L230.84 308.28L232.3 309.2L233.79 310.06L235.32 310.87L236.89 311.62L238.49 312.31L240.12 312.95L241.78 313.52L243.47 314.03L245.19 314.48L246.93 314.86L248.7 315.18L250.5 315.43L252.31 315.6L254.15 315.71L256 315.75L257.85 315.71L259.69 315.6L261.5 315.43L263.3 315.18L265.07 314.86L266.81 314.48L268.53 314.03L270.22 313.52L271.88 312.95L273.51 312.31L275.11 311.62L276.68 310.87L278.21 310.06L279.7 309.2L281.16 308.28L282.57 307.31L283.95 306.29L285.28 305.22L286.57 304.1L287.81 302.94L289.01 301.73L290.16 300.47L291.26 299.18L292.31 297.84L293.31 296.46L294.25 295.05L295.14 293.59L295.97 292.11L296.74 290.58L297.46 289.03L298.11 287.44L298.7 285.83L299.22 284.18L299.68 282.51L300.08 280.82L300.4 279.1L300.66 277.35L300.84 275.59L300.95 273.8L300.99 272L300.95 270.2L300.84 268.41L300.66 266.65L300.4 264.9L300.08 263.18L299.68 261.49L299.22 259.82L298.7 258.17L298.11 256.56L297.46 254.97L296.74 253.42L295.97 251.89L295.14 250.41L294.25 248.95L293.31 247.54L292.31 246.16L291.26 244.82L290.16 243.53L289.01 242.27L287.81 241.06L286.57 239.9L285.28 238.78L283.95 237.71L282.57 236.69L281.16 235.72L279.7 234.8L278.21 233.94L276.68 233.13L275.11 232.38L273.51 231.69L271.88 231.05L270.22 230.48L268.53 229.97L266.81 229.52L265.07 229.14L263.3 228.82L261.5 228.57L259.69 228.4L257.85 228.29L256 228.25L254.15 228.29L252.31 228.4Z" id="azRrc49CD"></path><path d="M183.94 295.34L183.95 295.34L213.91 323.77L151.49 368L121.53 339.57L150.25 319.23L74.09 246.96L107.79 223.08L183.94 295.34Z" id="e2bKEoRvMG"></path><path d="M328.06 295.8L328.05 295.8L298.09 324.22L360.51 368.46L390.47 340.03L361.75 319.68L437.91 247.42L404.21 223.54L328.06 295.8Z" id="a7QY0kz9oy"></path><path d="M148.38 381.03L256 442.19L363.62 381.03L322.51 282.07L189.49 282.07L148.38 381.03Z" id="cgmZlAzVd"></path><path d="M356 288C356 343.19 311.19 388 256 388C200.81 388 156 343.19 156 288C156 232.81 200.81 188 256 188C311.19 188 356 232.81 356 288Z" id="i5u7hhCMQa"></path><path d="M223.8 262.69L213.09 273.32L255.6 316.14L266.3 305.52L223.8 262.69Z" id="a2ArGiBuB"></path><path d="M288.86 263.61L299.27 274.53L255.61 316.17L245.2 305.25L288.86 263.61Z" id="a1685fQklE"></path></defs><g><g><g><use xlink:href="#c5G05kdukS" opacity="1" fill="#020202" fill-opacity="1"></use><use xlink:href="#c5G05kdukS" opacity="1" fill="#f2390a" fill-opacity="1"></use></g><g><use xlink:href="#aU4R4Ji16" opacity="1" fill="#020202" fill-opacity="1"></use><use xlink:href="#aU4R4Ji16" opacity="1" fill="#f2390a" fill-opacity="1"></use></g><g><use xlink:href="#azRrc49CD" opacity="1" fill="#a77f00" fill-opacity="1"></use></g><g><use xlink:href="#e2bKEoRvMG" opacity="1" fill="#a77f00" fill-opacity="1"></use></g><g><use xlink:href="#a7QY0kz9oy" opacity="1" fill="#a77f00" fill-opacity="1"></use></g><g><use xlink:href="#cgmZlAzVd" opacity="1" fill="#292523" fill-opacity="1"></use></g><g><use xlink:href="#i5u7hhCMQa" opacity="1" fill="#a77f00" fill-opacity="1"></use></g><g><use xlink:href="#a2ArGiBuB" opacity="1" fill="#f2390a" fill-opacity="1"></use></g><g><use xlink:href="#a1685fQklE" opacity="1" fill="#f2390a" fill-opacity="1"></use></g></g></g></svg>